<svg width="64" height="62" fill="none" xmlns="http://www.w3.org/2000/svg"><path d="M63.5 30.861c0 17.397-16.5 27.5-27.5 30S2 49.36 0 32.36c2-16.5 0-26.587 31-32 17.138-2.992 32.5 13.103 32.5 30.5z" fill="#778BEB"/><path d="M45.217 29.238c-.832 1.36-3.359 2.498-4.793 1.62-1.476-.512-.764-1.896.068-3.255.833-1.36 2.032-1.84 3.621-1.29 1.132.392.782.8 1.104 2.925zM54 29.5c-.5 1.5-1.93 1.361-3.572 1-1.562 0-3.169-1.224-2.826-2.78.342-1.558 1.145-2.171 2.826-2.171C51.626 25.549 54 27.5 54 29.5zM35.877 45.072c-.388-1.61 3.67-9.116 9.59-10.545 5.92-1.429 11.959 3.64 12.348 5.25.388 1.61-5.371-2.304-11.292-.876-5.92 1.43-10.257 7.781-10.646 6.17z" fill="#000"/></svg>