<svg width="34" height="34" viewBox="0 0 34 34" fill="none" xmlns="http://www.w3.org/2000/svg">
<path d="M17.1272 27.2545C21.6086 27.2545 25.2545 23.6086 25.2545 19.1272C25.2545 14.6459 21.6086 11 17.1272 11C12.6458 11 9 14.6459 9 19.1272C9 23.6086 12.6458 27.2545 17.1272 27.2545ZM17.1272 12.3611C20.8581 12.3611 23.8934 15.3964 23.8934 19.1272C23.8934 22.8581 20.8581 25.8934 17.1272 25.8934C13.3963 25.8934 10.3611 22.8581 10.3611 19.1272C10.3611 15.3964 13.3963 12.3611 17.1272 12.3611V12.3611Z" fill="#F19066"/>
<path d="M14.8402 19.4107C15.2161 19.4107 15.5208 19.106 15.5208 18.7302V17.5189C15.5208 17.1431 15.2161 16.8384 14.8402 16.8384C14.4643 16.8384 14.1597 17.1431 14.1597 17.5189V18.7302C14.1597 19.106 14.4643 19.4107 14.8402 19.4107Z" fill="#F19066"/>
<path d="M19.4144 19.4107C19.7902 19.4107 20.095 19.106 20.095 18.7302V17.5189C20.095 17.1431 19.7902 16.8384 19.4144 16.8384C19.0386 16.8384 18.7339 17.1431 18.7339 17.5189V18.7302C18.7339 19.106 19.0386 19.4107 19.4144 19.4107Z" fill="#F19066"/>
<path d="M14.8085 21.3252C14.5427 21.5909 14.5427 22.0218 14.8084 22.2877C15.4278 22.9073 16.2514 23.2486 17.1274 23.2486C18.0034 23.2486 18.8271 22.9074 19.4465 22.2877C19.7121 22.0218 19.7121 21.5909 19.4463 21.3252C19.1806 21.0595 18.7496 21.0596 18.4838 21.3254C18.1215 21.6878 17.6397 21.8874 17.1274 21.8874C16.615 21.8874 16.1333 21.6878 15.7709 21.3254C15.5054 21.0596 15.0744 21.0595 14.8085 21.3252V21.3252Z" fill="#F19066"/>
<path d="M31.6197 1.08194H31.0219V0.791994C31.0219 0.354576 30.7245 0 30.3578 0C29.9911 0 29.6938 0.354576 29.6938 0.791994V1.08194H25.6788V0.791994C25.6788 0.354576 25.3814 0 25.0147 0C24.648 0 24.3506 0.354576 24.3506 0.791994V1.08194H20.3356V0.791994C20.3356 0.354576 20.0382 0 19.6715 0C19.3048 0 19.0075 0.354576 19.0075 0.791994V1.08194H14.9925V0.791994C14.9925 0.354576 14.6952 0 14.3284 0C13.9616 0 13.6643 0.354576 13.6643 0.791994V1.08194H9.64936V0.791994C9.64936 0.354576 9.35206 0 8.9853 0C8.61854 0 8.32123 0.354576 8.32123 0.791994V1.08194H4.30618V0.791994C4.30618 0.354576 4.00888 0 3.64212 0C3.27536 0 2.97805 0.354576 2.97805 0.791994V1.08194H2.38027C1.06781 1.08194 0 2.35539 0 3.92069V31.1613C0 32.7266 1.06781 34 2.38027 34H31.6197C32.9323 34 34 32.7266 34 31.1613V3.92069C34 2.35539 32.9323 1.08194 31.6197 1.08194V1.08194ZM32.6719 31.1613C32.6719 31.8531 32.1999 32.416 31.6197 32.416H2.38027C1.80014 32.416 1.32812 31.8531 1.32812 31.1613V7.43413H32.6719V31.1613ZM32.6719 5.85015H1.32812V3.92069C1.32812 3.2288 1.80007 2.66585 2.38027 2.66585H2.97805V2.97639C2.97805 3.41381 3.27536 3.76839 3.64212 3.76839C4.00888 3.76839 4.30618 3.41381 4.30618 2.97639V2.66585H8.32117V2.97639C8.32117 3.41381 8.61847 3.76839 8.98523 3.76839C9.35199 3.76839 9.64929 3.41381 9.64929 2.97639V2.66585H13.6643V2.97639C13.6643 3.41381 13.9616 3.76839 14.3283 3.76839C14.6951 3.76839 14.9924 3.41381 14.9924 2.97639V2.66585H19.0074V2.97639C19.0074 3.41381 19.3048 3.76839 19.6715 3.76839C20.0382 3.76839 20.3355 3.41381 20.3355 2.97639V2.66585H24.3506V2.97639C24.3506 3.41381 24.6479 3.76839 25.0146 3.76839C25.3813 3.76839 25.6787 3.41381 25.6787 2.97639V2.66585H29.6937V2.97639C29.6937 3.41381 29.9911 3.76839 30.3578 3.76839C30.7244 3.76839 31.0218 3.41381 31.0218 2.97639V2.66585H31.6197C32.1998 2.66585 32.6718 3.22872 32.6718 3.92069V5.85015H32.6719Z" fill="#F19066"/>
</svg>
