<svg width="55" height="55" viewBox="0 0 55 55" fill="none" xmlns="http://www.w3.org/2000/svg">
<path d="M51.5338 13.9079C49.5066 11.8544 46.8647 10.6185 44.0185 10.3754C43.364 7.6045 41.8331 5.0904 39.6481 3.22448C37.2134 1.14512 34.107 0 30.901 0C26.6131 0 22.6339 2.01276 20.0925 5.42556C18.9708 5.05989 17.8018 4.87491 16.6067 4.87491C15.4084 4.87491 14.2285 5.06236 13.0998 5.43211C12.5359 5.61677 12.2286 6.22349 12.4132 6.78724C12.5979 7.35099 13.2048 7.65864 13.7685 7.47377C14.681 7.17503 15.6359 7.02346 16.6067 7.02346C17.8119 7.02346 18.9833 7.25538 20.0882 7.71268C20.5661 7.91087 21.1172 7.73975 21.3994 7.3063C23.5018 4.07655 27.0538 2.14844 30.901 2.14844C36.4546 2.14844 41.1527 6.11682 42.072 11.5846C42.158 12.0963 42.5976 12.4734 43.1166 12.4806C48.4844 12.5547 52.8516 16.9836 52.8516 22.3531C52.8516 27.7979 48.4219 32.2274 42.9772 32.2274H41.7871V26.0189C41.7871 24.7806 40.9921 23.0201 37.2047 21.6653C34.596 20.732 31.1494 20.2181 27.5 20.2181C23.8506 20.2181 20.404 20.732 17.7953 21.6653C14.0079 23.0201 13.2129 24.7806 13.2129 26.0189V32.2274H9.0402C5.24004 32.2274 2.14844 29.1358 2.14844 25.3358C2.14844 22.3509 4.05324 19.7199 6.88832 18.7886C7.39009 18.6237 7.69764 18.1185 7.61353 17.597C7.53554 17.1138 7.49611 16.6216 7.49611 16.1339C7.49611 15.2282 7.62835 14.3345 7.88917 13.4774C8.0619 12.9099 7.74179 12.3097 7.17417 12.137C6.60677 11.9639 6.00649 12.2842 5.83376 12.8518C5.51117 13.9119 5.34768 15.0161 5.34768 16.1339C5.34768 16.444 5.36067 16.7554 5.38624 17.0662C2.13093 18.4998 0 21.7198 0 25.3358C0 30.3205 4.05539 34.3759 9.0402 34.3759H13.2129V49.1992C13.2129 50.4375 14.0079 52.198 17.7953 53.5528C20.4039 54.4861 23.8506 55 27.5 55C31.1494 55 34.5961 54.4861 37.2047 53.5528C40.9921 52.198 41.7871 50.4375 41.7871 49.1992V34.3759H42.9772C49.6067 34.3759 55 28.9825 55 22.3531C55 19.1713 53.7691 16.172 51.5338 13.9079V13.9079ZM39.6387 33.7457C39.6387 34.2998 38.8117 35.2428 36.4811 36.0765C34.0987 36.9287 30.9091 37.3981 27.5 37.3981C24.0909 37.3981 20.9013 36.9287 18.5189 36.0765C16.1883 35.2426 15.3613 34.2998 15.3613 33.7457V29.218C15.9878 29.62 16.7839 30.0108 17.7953 30.3726C20.404 31.3058 23.8506 31.8198 27.5 31.8198C31.1494 31.8198 34.5961 31.3058 37.2047 30.3726C38.216 30.0108 39.0122 29.62 39.6387 29.218V33.7457ZM15.3613 36.9447C15.9878 37.3467 16.7839 37.7375 17.7953 38.0993C20.404 39.0326 23.8506 39.5465 27.5 39.5465C31.1494 39.5465 34.5961 39.0326 37.2047 38.0993C38.216 37.7375 39.0122 37.3467 39.6387 36.9447V41.4724C39.6387 42.0264 38.8117 42.9694 36.4811 43.8031C34.0987 44.6554 30.9091 45.1247 27.5 45.1247C24.0909 45.1247 20.9013 44.6554 18.5189 43.8031C16.1883 42.9694 15.3613 42.0266 15.3613 41.4724V36.9447ZM18.5189 23.6882C20.9014 22.8359 24.0909 22.3665 27.5 22.3665C30.9091 22.3665 34.0986 22.8359 36.4811 23.6882C38.8117 24.5218 39.6387 25.4648 39.6387 26.0189C39.6387 26.5729 38.8117 27.5159 36.4811 28.3496C34.0987 29.2019 30.9091 29.6712 27.5 29.6712C24.0909 29.6712 20.9013 29.2019 18.5189 28.3496C16.1883 27.5158 15.3613 26.5729 15.3613 26.0189C15.3613 25.4648 16.1883 24.5218 18.5189 23.6882V23.6882ZM36.4811 51.53C34.0987 52.3822 30.9091 52.8516 27.5 52.8516C24.0909 52.8516 20.9013 52.3822 18.5189 51.53C16.1883 50.6962 15.3613 49.7533 15.3613 49.1992V44.6715C15.9878 45.0735 16.7839 45.4643 17.7953 45.8261C20.404 46.7593 23.8506 47.2733 27.5 47.2733C31.1494 47.2733 34.5961 46.7593 37.2047 45.8261C38.216 45.4643 39.0122 45.0735 39.6387 44.6715V49.1992C39.6387 49.7533 38.8117 50.6962 36.4811 51.53Z" fill="white"/>
<path d="M9.33057 10.0825C9.61309 10.0825 9.89023 9.96769 10.09 9.76777C10.2898 9.56689 10.4048 9.29093 10.4048 9.00723C10.4048 8.72471 10.2898 8.44863 10.09 8.24786C9.89023 8.04806 9.61309 7.93408 9.33057 7.93408C9.04805 7.93408 8.7709 8.04806 8.57109 8.24786C8.37129 8.44863 8.25635 8.72471 8.25635 9.00723C8.25635 9.29093 8.37129 9.56689 8.57109 9.76777C8.7709 9.96769 9.04805 10.0825 9.33057 10.0825V10.0825Z" fill="white"/>
</svg>
