<svg width="60" height="57" fill="none" xmlns="http://www.w3.org/2000/svg"><path d="M60 30.92c0 17.43-20.315 23.183-30.709 25.688C18.898 59.113 1.89 49.455 0 32.423 1.89 15.89 0 5.785 29.291.362 45.484-2.636 60 13.49 60 30.92z" fill="#3DC1D3"/><path d="M20.754 15.855c-.116 1.622-.684 2.953-2.488 2.824-1.661.225-3.507-1.903-4.014-3.795.115-1.622 1.492-1.645 3.537-1.637 1.288.005 2.459 1.188 2.965 2.608zM32.618 14.17c.051 1.455-1.372 3.182-3.218 3.484-1.625.577-4.705.976-4.941-.47-.236-1.445.365-2.261 2.114-2.883 1.245-.443 5.285-1.826 6.045-.132zM14.39 28.524c.145-5.658 5.609 0 11.41-5.37 3.751-3.473 8.624-4.154 8.2 0-.324 3.163.381 5.802-7.073 5.644-6.214-.131-11.383 5.875-12.537-.274z" fill="#000"/></svg>