<svg width="47" height="36" viewBox="0 0 47 36" fill="none" xmlns="http://www.w3.org/2000/svg">
<path d="M42.8691 0H4.13086C1.85595 0 0 1.85393 0 4.13086V31.6699C0 33.9391 1.84769 35.8008 4.13086 35.8008H42.8691C45.1384 35.8008 47 33.9531 47 31.6699V4.13086C47 1.86164 45.1523 0 42.8691 0ZM42.2987 2.75391L23.5876 21.4651L4.7146 2.75391H42.2987ZM2.75391 31.0997V4.68797L16.0166 17.837L2.75391 31.0997ZM4.70119 33.0469L17.9723 19.7758L22.6224 24.386C23.1607 24.9197 24.0294 24.918 24.5655 24.3818L29.0996 19.8477L42.2988 33.0469H4.70119ZM44.2461 31.0996L31.0469 17.9004L44.2461 4.7011V31.0996Z" fill="white"/>
</svg>
