<svg width="53" height="32" viewBox="0 0 53 32" fill="none" xmlns="http://www.w3.org/2000/svg">
<path d="M2.08696 4.17391C3.23955 4.17391 4.17391 3.23955 4.17391 2.08696C4.17391 0.934362 3.23955 0 2.08696 0C0.934362 0 0 0.934362 0 2.08696C0 3.23955 0.934362 4.17391 2.08696 4.17391Z" fill="white"/>
<path d="M52.4522 0H10.4348V4.17391H52.4522V0Z" fill="white"/>
<path d="M2.08696 32.0001C3.23955 32.0001 4.17391 31.0657 4.17391 29.9131C4.17391 28.7605 3.23955 27.8262 2.08696 27.8262C0.934362 27.8262 0 28.7605 0 29.9131C0 31.0657 0.934362 32.0001 2.08696 32.0001Z" fill="white"/>
<path d="M52.4522 27.8262H10.4348V32.0001H52.4522V27.8262Z" fill="white"/>
<path d="M2.08696 18.087C3.23955 18.087 4.17391 17.1526 4.17391 16C4.17391 14.8474 3.23955 13.9131 2.08696 13.9131C0.934362 13.9131 0 14.8474 0 16C0 17.1526 0.934362 18.087 2.08696 18.087Z" fill="white"/>
<path d="M52.4522 13.9131H10.4348V18.087H52.4522V13.9131Z" fill="white"/>
</svg>
