<svg width="48" height="41" viewBox="0 0 48 41" fill="none" xmlns="http://www.w3.org/2000/svg">
<path d="M47.5603 23.1688C47.5602 23.1686 47.5602 23.1684 47.5601 23.1682L38.5679 0.589552C38.377 0.109814 37.8333 -0.124386 37.3535 0.0664569C37.3532 0.0665738 37.3528 0.0666906 37.3525 0.0669243L0.872293 14.593C0.723522 14.6573 0.594501 14.7599 0.49832 14.8903C0.194934 15.048 0.00327227 15.36 0 15.7018V40.0101C0 40.5264 0.418617 40.945 0.934934 40.945H40.2022C40.7185 40.945 41.1371 40.5264 41.1371 40.0101V26.734L47.0384 24.3836C47.518 24.1923 47.7516 23.6484 47.5603 23.1688ZM39.2672 39.0752H1.86987V16.6368H39.2672V39.0752ZM15.5994 14.7716L31.2539 8.53369C32.651 10.0022 34.5869 10.8369 36.6139 10.8448L38.1752 14.7716H15.5994ZM41.1371 24.7258V15.7018C41.1371 15.1855 40.7185 14.7669 40.2022 14.7669H40.1872L38.2061 9.79117C38.1841 9.74968 38.1585 9.71018 38.1294 9.67337C38.0291 9.22308 37.6122 8.91584 37.1524 8.95347C35.2664 9.12538 33.4214 8.33092 32.2505 6.84239C31.9592 6.48279 31.4471 6.39339 31.051 6.63296C31.0066 6.63822 30.9626 6.6464 30.9192 6.65727L11.8073 14.2676C11.576 14.3583 11.391 14.5382 11.294 14.7669H5.48993L37.1767 2.14996L45.478 22.9943L41.1371 24.7258Z" fill="white"/>
<path d="M4.40729 32.7636C6.22246 33.3002 7.64286 34.7188 8.18162 36.5333C8.29977 36.9294 8.66404 37.2007 9.07728 37.2008C9.12578 37.1978 9.17393 37.1906 9.22126 37.1793C9.26322 37.1913 9.30611 37.2 9.34935 37.2055H31.7878C31.8263 37.2005 31.8644 37.1927 31.9018 37.1821C32.3689 37.2957 32.8397 37.0093 32.9534 36.5422C32.9537 36.5404 32.9542 36.5388 32.9546 36.537C33.4919 34.7207 34.9125 33.3001 36.7289 32.7627C37.1694 32.6281 37.4431 32.1891 37.3703 31.7343C37.3828 31.6889 37.3918 31.6427 37.3974 31.5959V24.1164C37.3919 24.0696 37.3825 24.0233 37.3693 23.9781C37.4426 23.5231 37.1688 23.0839 36.728 22.9496C34.9116 22.4124 33.4913 20.9912 32.9555 19.1744C32.8202 18.7309 32.3769 18.4565 31.9196 18.533C31.8763 18.521 31.8323 18.5122 31.7878 18.5068H9.34935C9.30225 18.5124 9.25562 18.5218 9.21004 18.5349C8.75532 18.4624 8.3166 18.736 8.18162 19.1762C7.64391 20.9922 6.2234 22.4124 4.40729 22.9496C3.96682 23.0843 3.69312 23.5232 3.76592 23.9781C3.75377 24.0235 3.74501 24.0697 3.73975 24.1164V31.5959C3.74512 31.6399 3.75389 31.6833 3.76592 31.7259C3.68926 32.1836 3.96355 32.6275 4.40729 32.7636ZM5.60961 24.496C7.48696 23.742 8.97491 22.2541 9.72893 20.3767H31.4072C32.1616 22.2541 33.6499 23.742 35.5275 24.496V31.2163C33.6507 31.9712 32.163 33.4589 31.4082 35.3356H9.72893C8.97409 33.4589 7.48638 31.9712 5.60961 31.2163V24.496Z" fill="white"/>
<path d="M20.5686 33.4658C23.6667 33.4658 26.1782 30.9543 26.1782 27.8562C26.1782 24.758 23.6667 22.2466 20.5686 22.2466C17.4705 22.2466 14.959 24.758 14.959 27.8562C14.962 30.953 17.4717 33.4627 20.5686 33.4658ZM20.5686 24.1164C22.634 24.1164 24.3083 25.7908 24.3083 27.8562C24.3083 29.9216 22.634 31.5959 20.5686 31.5959C18.5032 31.5959 16.8289 29.9216 16.8289 27.8562C16.8289 25.7908 18.5032 24.1164 20.5686 24.1164Z" fill="white"/>
<path d="M10.2842 29.2584C11.0587 29.2584 11.6866 28.6305 11.6866 27.856C11.6866 27.0815 11.0587 26.4536 10.2842 26.4536C9.50976 26.4536 8.88184 27.0815 8.88184 27.856C8.88184 28.6306 9.50976 29.2584 10.2842 29.2584ZM10.2842 27.3885C10.5424 27.3885 10.7517 27.5979 10.7517 27.856C10.7517 28.1142 10.5424 28.3235 10.2842 28.3235C10.0261 28.3235 9.81677 28.1142 9.81677 27.856C9.81677 27.5979 10.0261 27.3885 10.2842 27.3885Z" fill="white"/>
<path d="M30.8528 29.2584C31.6273 29.2584 32.2552 28.6305 32.2552 27.856C32.2552 27.0815 31.6273 26.4536 30.8528 26.4536C30.0784 26.4536 29.4504 27.0815 29.4504 27.856C29.4504 28.6306 30.0784 29.2584 30.8528 29.2584ZM30.8528 27.3885C31.111 27.3885 31.3203 27.5979 31.3203 27.856C31.3203 28.1142 31.111 28.3235 30.8528 28.3235C30.5947 28.3235 30.3854 28.1142 30.3854 27.856C30.3854 27.5979 30.5947 27.3885 30.8528 27.3885Z" fill="white"/>
</svg>
