<svg width="34" height="34" viewBox="0 0 34 34" fill="none" xmlns="http://www.w3.org/2000/svg">
<g clip-path="url(#clip0)">
<path d="M30.8699 0H5.26367C4.71356 0 4.26758 0.445984 4.26758 0.996094V3.21406H5.40532C7.05305 3.21406 8.3936 4.55461 8.3936 6.20234C8.3936 7.85008 7.05305 9.19062 5.40532 9.19062H4.26758V10.4125H5.40532C7.05305 10.4125 8.3936 11.753 8.3936 13.4008C8.3936 15.0485 7.05305 16.3891 5.40532 16.3891H4.26758V17.6109H5.40532C7.05305 17.6109 8.3936 18.9515 8.3936 20.5992C8.3936 22.247 7.05305 23.5875 5.40532 23.5875H4.26758V24.8094H5.40532C7.05305 24.8094 8.3936 26.1499 8.3936 27.7977C8.3936 29.4454 7.05305 30.7859 5.40532 30.7859H4.26758V33.0039C4.26758 33.554 4.71356 34 5.26367 34H30.8699C31.42 34 31.866 33.554 31.866 33.0039V0.996094C31.866 0.445984 31.42 0 30.8699 0V0ZM17.0707 22.2638H12.7322C12.1821 22.2638 11.7361 21.8178 11.7361 21.2677C11.7361 20.7176 12.1821 20.2716 12.7322 20.2716H17.0707C17.6208 20.2716 18.0668 20.7176 18.0668 21.2677C18.0668 21.8178 17.6208 22.2638 17.0707 22.2638ZM23.4014 17.9961H12.7321C12.182 17.9961 11.736 17.5501 11.736 17C11.736 16.4499 12.182 16.0039 12.7321 16.0039H23.4014C23.9515 16.0039 24.3975 16.4499 24.3975 17C24.3975 17.5501 23.9515 17.9961 23.4014 17.9961ZM23.4014 13.7284H12.7321C12.182 13.7284 11.736 13.2824 11.736 12.7323C11.736 12.1822 12.182 11.7362 12.7321 11.7362H23.4014C23.9515 11.7362 24.3975 12.1822 24.3975 12.7323C24.3975 13.2824 23.9515 13.7284 23.4014 13.7284Z" fill="#F19066"/>
<path d="M6.40176 27.7974C6.40176 27.2473 5.95578 26.8013 5.40567 26.8013H3.13013C2.58002 26.8013 2.13403 27.2473 2.13403 27.7974C2.13403 28.3475 2.58002 28.7935 3.13013 28.7935H5.40567C5.95578 28.7935 6.40176 28.3475 6.40176 27.7974Z" fill="#F19066"/>
<path d="M3.13013 21.5952H5.40567C5.95578 21.5952 6.40176 21.1492 6.40176 20.5991C6.40176 20.049 5.95578 19.603 5.40567 19.603H3.13013C2.58002 19.603 2.13403 20.049 2.13403 20.5991C2.13403 21.1492 2.58002 21.5952 3.13013 21.5952Z" fill="#F19066"/>
<path d="M3.13013 14.397H5.40567C5.95578 14.397 6.40176 13.951 6.40176 13.4009C6.40176 12.8508 5.95578 12.4048 5.40567 12.4048H3.13013C2.58002 12.4048 2.13403 12.8508 2.13403 13.4009C2.13403 13.951 2.58002 14.397 3.13013 14.397Z" fill="#F19066"/>
<path d="M3.13013 7.19873H5.40567C5.95578 7.19873 6.40176 6.75275 6.40176 6.20264C6.40176 5.65253 5.95578 5.20654 5.40567 5.20654H3.13013C2.58002 5.20654 2.13403 5.65253 2.13403 6.20264C2.13403 6.75275 2.58002 7.19873 3.13013 7.19873Z" fill="#F19066"/>
</g>
<defs>
<clipPath id="clip0">
<rect width="34" height="34" fill="white"/>
</clipPath>
</defs>
</svg>
