<svg width="55" height="47" viewBox="0 0 55 47" fill="none" xmlns="http://www.w3.org/2000/svg">
<path d="M23.1152 46.042C23.1029 46.042 23.0914 46.042 23.0791 46.042C10.3729 46.0221 0.0197724 35.6805 2.88803e-05 22.9886C-0.00957895 16.853 2.37834 11.0807 6.72403 6.73498C11.0678 2.39108 16.839 0 22.9772 0H23.014C24.1002 0.00168929 25.1944 0.0803468 26.2661 0.233966C26.8434 0.316742 27.2442 0.851718 27.1615 1.42893C27.0788 2.00624 26.5437 2.40692 25.9666 2.32425C24.9927 2.18467 23.9982 2.11309 23.0108 2.11161C22.9998 2.11161 22.9884 2.11161 22.9774 2.11161C17.4028 2.11161 12.1624 4.28288 8.21726 8.2281C4.27129 12.1741 2.10298 17.4149 2.11164 22.9852C2.12948 34.5164 11.5369 43.9124 23.0824 43.9303H23.1152C29.2509 43.9303 35.0492 41.2522 39.0282 36.5793C39.0414 36.5637 39.1114 36.4727 39.1742 36.2259C39.3368 35.5859 39.1931 34.9139 38.7797 34.3822C38.3465 33.8251 37.6945 33.5055 36.991 33.5055H33.7312C30.5829 33.5055 28.0215 30.9441 28.0215 27.7958C28.0215 24.6769 30.5353 22.134 33.6432 22.0868C36.2981 21.6496 38.5304 19.9253 39.6249 17.462C40.7274 14.9808 40.4976 12.1455 39.0099 9.87738C38.4279 8.98976 37.8478 8.27445 37.2859 7.7512C36.62 7.13112 35.9089 6.54937 35.1722 6.02221C34.698 5.68287 34.5886 5.02342 34.9279 4.54915C35.2671 4.07499 35.9266 3.96561 36.4009 4.30484C37.2112 4.88458 37.9931 5.52419 38.7251 6.20581C39.4108 6.84447 40.1007 7.69007 40.7758 8.71916C42.6588 11.5903 42.9501 15.1792 41.5547 18.3193C40.1573 21.4644 37.2931 23.6573 33.8933 24.1852C33.8397 24.1936 33.7855 24.1977 33.7313 24.1977C31.7474 24.1977 30.1332 25.8118 30.1332 27.7958C30.1332 29.7798 31.7474 31.3939 33.7313 31.3939H36.9911C38.351 31.3939 39.6106 32.0105 40.4468 33.0859C41.2631 34.1358 41.5453 35.4699 41.2209 36.7462C41.0969 37.2335 40.9004 37.6378 40.6363 37.948C36.2551 43.0931 29.8704 46.0417 23.1152 46.042V46.042Z" fill="white"/>
<path d="M31.5726 3.85802C30.6423 3.86309 30.1636 2.7092 30.8261 2.05576C31.2177 1.64569 31.9273 1.64917 32.319 2.05576C32.981 2.70825 32.502 3.86341 31.5726 3.85802Z" fill="white"/>
<path d="M28.7488 14.1774C27.6738 14.1774 26.5945 13.7994 25.7288 13.0308C24.8214 12.2253 24.2811 11.1155 24.2077 9.90603C24.1344 8.69545 24.5374 7.52984 25.3427 6.62396C27.0034 4.75602 29.8791 4.58931 31.7534 6.25295C31.7534 6.25295 31.7534 6.25305 31.7535 6.25305C32.6608 7.05874 33.201 8.16849 33.2741 9.37792C33.3475 10.5887 32.9444 11.7542 32.139 12.6598C31.2454 13.6649 30.0002 14.1774 28.7488 14.1774V14.1774ZM28.7315 7.21711C28.0626 7.21711 27.3976 7.49056 26.9207 8.02702C26.4912 8.51015 26.2762 9.13213 26.3154 9.77818C26.3546 10.4255 26.6442 11.0198 27.1307 11.4516C28.1343 12.3427 29.6731 12.2552 30.5609 11.2566C30.9905 10.7736 31.2054 10.1518 31.1663 9.50557C31.1271 8.85825 30.8377 8.26383 30.3513 7.83201C29.8868 7.41993 29.3077 7.21711 28.7315 7.21711V7.21711Z" fill="white"/>
<path d="M17.5896 14.0295C15.2056 14.0295 13.195 12.1638 13.0488 9.75615C12.9754 8.5462 13.3779 7.38122 14.1823 6.47587C14.9875 5.56956 16.0985 5.03195 17.3106 4.96226H17.3107C19.8088 4.81772 21.9638 6.73222 22.1153 9.22793C22.1886 10.4382 21.786 11.6032 20.9816 12.5086C20.1765 13.4148 19.0655 13.9523 17.8535 14.0221C17.7651 14.0271 17.6769 14.0295 17.5896 14.0295ZM17.432 7.07029C16.7841 7.10756 16.1907 7.39452 15.761 7.87829C15.332 8.36111 15.1174 8.98256 15.1565 9.62819C15.2378 10.9656 16.3939 11.9904 17.7319 11.9138C18.3798 11.8764 18.9732 11.5896 19.403 11.106C19.8319 10.6232 20.0467 10.0015 20.0075 9.35558C19.9264 8.01861 18.7718 6.99353 17.432 7.07029Z" fill="white"/>
<path d="M9.61663 21.8021C8.54182 21.8021 7.46237 21.4244 6.59661 20.656C5.68883 19.8503 5.14868 18.7404 5.0754 17.5309C5.00202 16.3202 5.40524 15.1546 6.2106 14.2489C7.87128 12.381 10.7471 12.2145 12.6209 13.8778C13.5285 14.6836 14.0685 15.7934 14.1418 17.0029C14.2152 18.2135 13.8122 19.379 13.0069 20.2846C12.1136 21.2896 10.8683 21.8021 9.61663 21.8021V21.8021ZM9.59974 14.842C8.93078 14.842 8.26584 15.1155 7.78872 15.6521V15.6522C7.35911 16.1352 7.14415 16.7571 7.18321 17.4032C7.22238 18.0506 7.51188 18.6449 7.9984 19.0768C9.00215 19.9676 10.5412 19.8801 11.429 18.8817C11.8584 18.3986 12.0734 17.7769 12.0342 17.1306C11.995 16.4832 11.7055 15.8888 11.2192 15.457C10.7548 15.0448 10.1758 14.842 9.59974 14.842V14.842ZM6.99971 14.9505H7.00077H6.99971Z" fill="white"/>
<path d="M9.49846 32.9501C7.11445 32.9501 5.10399 31.0846 4.95818 28.6768V28.6767C4.88501 27.4666 5.2877 26.3015 6.09211 25.3961C6.89717 24.49 8.00798 23.9525 9.21983 23.8827C11.7182 23.7378 13.8734 25.6528 14.0246 28.1487C14.0978 29.3589 13.6951 30.5239 12.8908 31.4293C12.0857 32.3353 10.9749 32.8727 9.76294 32.9425C9.67436 32.9475 9.5862 32.9501 9.49846 32.9501V32.9501ZM7.06588 28.5492C7.14686 29.8864 8.3016 30.9104 9.64142 30.8344C10.2893 30.7971 10.8825 30.5102 11.3121 30.0268C11.7411 29.5439 11.9558 28.9223 11.9168 28.2762C11.8358 26.9391 10.6802 25.9128 9.34114 25.9907C8.69362 26.0281 8.10026 26.315 7.67065 26.7985C7.24157 27.2815 7.02682 27.9032 7.06588 28.5493V28.5492Z" fill="white"/>
<path d="M17.3072 40.9355C16.2323 40.9355 15.153 40.5577 14.2872 39.7891C13.3797 38.9835 12.8397 37.8737 12.7663 36.6644C12.6929 35.4538 13.0959 34.2883 13.9011 33.3825C15.5621 31.5147 18.4378 31.3484 20.3115 33.0114C21.219 33.8172 21.759 34.9269 21.8323 36.1364C21.9057 37.3471 21.5027 38.5126 20.6975 39.4181C19.804 40.4229 18.5587 40.9355 17.3072 40.9355V40.9355ZM15.6892 38.21C16.6929 39.101 18.2317 39.0134 19.1196 38.0149C19.549 37.5319 19.7639 36.9102 19.7247 36.264C19.6854 35.6166 19.396 35.0222 18.9097 34.5904C17.9061 33.6996 16.3671 33.7871 15.4792 34.7855C15.0499 35.2684 14.835 35.8903 14.8741 36.5364C14.9133 37.1838 15.2028 37.7781 15.6892 38.21Z" fill="white"/>
<path d="M53.7348 33.158C53.4044 32.2458 52.8281 31.4651 52.0937 30.8767C52.3692 29.306 52.5643 27.533 52.6739 25.6005C52.7383 24.464 52.7716 21.0341 52.7716 19.8207C52.7716 15.9674 52.4373 11.9071 51.8545 8.68096C51.0862 4.42828 50.1253 2.61377 48.6418 2.61377C47.1583 2.61377 46.1975 4.42828 45.4291 8.68096C44.8462 11.9071 44.5119 15.9674 44.5119 19.8207C44.5119 21.0335 44.5453 24.4628 44.6097 25.6003C44.7176 27.5032 44.9175 29.319 45.1899 30.8765C44.4554 31.4649 43.879 32.2457 43.5488 33.158C43.335 33.7484 43.2266 34.3685 43.2266 35.001C43.2266 35.3378 43.2497 35.6773 43.295 36.0078C43.7973 39.7288 46.9081 42.2983 47.8497 42.9973C47.9769 43.0918 48.0491 43.1402 48.0491 43.1402C48.2279 43.2607 48.4354 43.3212 48.6427 43.3212C48.844 43.3212 49.0454 43.2642 49.2205 43.1493C49.4179 43.0199 54.0571 39.9221 54.0571 35.0009C54.057 34.3686 53.9486 33.7485 53.7348 33.158ZM46.718 25.4809C46.6567 24.3997 46.6235 20.9804 46.6235 19.8208C46.6235 16.4307 46.8989 12.7803 47.379 9.80592C47.8498 6.88915 48.3494 5.58808 48.6417 5.03473C48.9339 5.58808 49.4335 6.88915 49.9043 9.80592C50.3845 12.7804 50.6599 16.4308 50.6599 19.8208C50.6599 20.9809 50.6268 24.4008 50.5655 25.4809C50.4766 27.0488 50.3235 28.5488 50.1181 29.8769C49.663 29.7544 49.1865 29.6895 48.6988 29.6895H48.5844C48.0968 29.6895 47.6202 29.7544 47.1651 29.8769C46.9599 28.5482 46.8069 27.0482 46.718 25.4809ZM48.6485 40.9362C47.6726 40.1137 45.7201 38.1885 45.3872 35.7234C45.3545 35.4855 45.3381 35.2425 45.3381 35.0011C45.3381 34.6145 45.4041 34.2362 45.5341 33.877C45.9837 32.6353 47.2095 31.8011 48.5846 31.8011H48.699C50.0739 31.8011 51.2998 32.6353 51.7494 33.877C51.8794 34.2363 51.9454 34.6145 51.9454 35.0012C51.9454 37.8595 49.7336 40.039 48.6485 40.9362V40.9362Z" fill="white"/>
</svg>
