<svg width="26" height="26" viewBox="0 0 26 26" fill="none" xmlns="http://www.w3.org/2000/svg">
<path d="M19.2716 8.38475C19.05 8.16299 18.6576 8.16299 18.4361 8.38475L7.19667 19.6336C7.06222 19.7682 7.00106 19.9588 7.03103 20.1465C7.06161 20.3342 7.18049 20.4959 7.35012 20.5808L8.27282 21.0428V22.5967L5.44583 23.4056L2.5923 20.5496L3.40055 17.7202H4.95306L5.41469 18.6437C5.49951 18.8134 5.6611 18.9324 5.84862 18.963C5.88036 18.9682 5.91211 18.9705 5.94324 18.9705C6.09846 18.9705 6.24964 18.9093 6.36105 18.7972L17.6004 7.54841C17.7112 7.4375 17.7736 7.28738 17.7736 7.13027C17.7736 6.97316 17.7112 6.82303 17.6004 6.71213L15.4272 4.53705C15.3165 4.42615 15.1664 4.36377 15.0094 4.36377H15.0083C14.8507 4.36432 14.7001 4.42731 14.5899 4.53877L2.53518 16.7124C2.52936 16.7183 2.52964 16.7273 2.52405 16.7334C2.46339 16.7989 2.41275 16.8746 2.38627 16.9665L1.36025 20.5594L0.0226801 25.2463C-0.0362075 25.4525 0.0215167 25.6748 0.173306 25.8267C0.285819 25.9394 0.436445 26 0.591115 26C0.645349 26 0.699583 25.9925 0.753263 25.9775L5.43608 24.6387L9.02595 23.6118C9.03675 23.6087 9.04417 23.6006 9.05476 23.5969C9.09204 23.584 9.12467 23.5631 9.15896 23.5428C9.19264 23.5228 9.22632 23.505 9.2548 23.4793C9.26244 23.4726 9.27247 23.4701 9.27984 23.4628L21.4431 11.3978C21.5544 11.2875 21.6174 11.1368 21.6179 10.9791C21.6185 10.822 21.5562 10.6713 21.4448 10.5598L19.2716 8.38475Z" fill="#F19066"/>
<path d="M25.3077 4.21941L21.7623 0.670975C20.869 -0.223086 19.315 -0.224803 18.4182 0.672693L16.2537 2.85874C16.0246 3.09035 16.0251 3.46285 16.2554 3.6933L22.2879 9.73097C22.4033 9.84647 22.5546 9.90425 22.7058 9.90425C22.8564 9.90425 23.0064 9.84708 23.1218 9.73274L25.3077 7.56465C25.7543 7.11765 26.0001 6.52389 26.0001 5.89209C26.0001 5.26028 25.7544 4.66641 25.3077 4.21941Z" fill="#F19066"/>
</svg>
