<svg width="64" height="62" fill="none" xmlns="http://www.w3.org/2000/svg"><path d="M63.5 30.861c0 17.397-16.5 27.5-27.5 30S2 49.36 0 32.36c2-16.5 0-26.587 31-32 17.138-2.992 32.5 13.103 32.5 30.5z" fill="#786FA6"/><path d="M21.904 37.305c-1.282.946-4.501 1.853-5.5.5-1.176-1.029 1.718-1.054 3-2 1.283-.947 1.734-3.107 3-2 .902.788 0 2.5-.5 3.5zM26.598 35.757c-1.206-1.042-2.8-3.982-1.7-5.255.743-1.374 1.406 1.444 2.612 2.486 1.206 1.042 3.413 1.006 2.612 2.485-.57 1.053-2.438.551-3.524.284zM32 43.5c.181 1.647-3.457 2.287-8.38 2.83-4.923.544-7.438 1.647-7.62 0-.182-1.646 2.203-3.929 7.126-4.472 4.924-.544 8.692-.005 8.873 1.642z" fill="#000"/></svg>