<svg width="59" height="52" viewBox="0 0 59 52" fill="none" xmlns="http://www.w3.org/2000/svg">
<path d="M57.9289 21.9352H54.5856C52.807 9.53813 42.174 0 29.2853 0C19.325 0 10.7154 5.70318 6.48562 14.0092L13.3513 16.6488C16.4826 11.0809 22.4398 7.31166 29.2854 7.31166C38.1289 7.31166 45.5046 13.5925 47.1972 21.9351H42.7919C42.2272 22.4834 41.6861 22.8235 42.4958 23.774L49.3157 30.7092C49.8806 31.2576 50.7964 31.2576 51.3613 30.7092L58.227 23.774C58.7899 23.2258 58.4937 22.4854 57.9289 21.9352ZM29.2853 43.8704C21.1017 43.8704 14.1757 38.4908 11.8451 31.0748H15.8446C16.4094 30.5264 16.7055 29.7843 16.1407 29.2358L9.27691 22.3007C8.71209 21.7523 7.79629 21.7523 7.23147 22.3007L0.411373 29.2358C-0.398462 30.1863 0.142639 30.5263 0.707458 31.0748H4.05993C6.04321 41.9182 16.5648 51.182 29.2871 51.182C38.5968 51.182 46.72 46.1937 51.1985 38.7613L44.2797 36.0304C40.9749 40.7666 35.4965 43.8704 29.2853 43.8704Z" fill="white"/>
</svg>
