<svg width="28" height="29" viewBox="0 0 28 29" fill="none" xmlns="http://www.w3.org/2000/svg">
<path d="M27.3412 11.198L25.1891 10.7135C25.002 10.1201 24.7702 9.54129 24.4966 8.98373L25.688 7.06437C25.9007 6.72143 25.8539 6.27118 25.5758 5.98311L22.2232 2.51077C21.9451 2.2227 21.5103 2.17425 21.1792 2.39462L19.326 3.62854C18.7877 3.34512 18.2289 3.10506 17.6559 2.91124L17.1881 0.682343C17.1046 0.284088 16.7641 0 16.3706 0H11.6294C11.2359 0 10.8954 0.284088 10.8119 0.682343L10.3441 2.91124C9.77112 3.10506 9.21228 3.34512 8.67395 3.62854L6.82077 2.39462C6.48965 2.17425 6.05493 2.2227 5.77679 2.51077L2.42419 5.98311C2.14606 6.27118 2.09927 6.72143 2.31204 7.06437L3.50342 8.98373C3.22977 9.54129 2.99799 10.1201 2.81085 10.7135L0.658813 11.198C0.274292 11.2848 0 11.6372 0 12.0448V16.9552C0 17.3628 0.274292 17.7152 0.658813 17.802L2.81085 18.2865C2.99799 18.8799 3.22977 19.4587 3.50342 20.0163L2.31204 21.9356C2.09927 22.2786 2.14606 22.7288 2.42419 23.0169L5.77679 26.4892C6.05493 26.7773 6.48965 26.8258 6.82077 26.6054L8.67395 25.3715C9.21228 25.6549 9.77112 25.8949 10.3441 26.0888L10.8119 28.3177C10.8954 28.7159 11.2359 29 11.6294 29H16.3706C16.7641 29 17.1046 28.7159 17.1881 28.3177L17.6559 26.0888C18.2289 25.8949 18.7877 25.6549 19.326 25.3715L21.1792 26.6054C21.5103 26.8258 21.9451 26.7775 22.2232 26.4892L25.5758 23.0169C25.8539 22.7288 25.9007 22.2786 25.688 21.9356L24.4966 20.0163C24.7702 19.4587 25.002 18.8799 25.1891 18.2865L27.3412 17.802C27.7257 17.7152 28 17.3628 28 16.9552V12.0448C28 11.6372 27.7257 11.2848 27.3412 11.198ZM19.0199 14.5C19.0199 17.3668 16.7679 19.6992 14 19.6992C11.2321 19.6992 8.98007 17.3668 8.98007 14.5C8.98007 11.6332 11.2321 9.30079 14 9.30079C16.7679 9.30079 19.0199 11.6332 19.0199 14.5Z" fill="#F19066"/>
</svg>
