<svg width="33" height="32" fill="none" xmlns="http://www.w3.org/2000/svg"><path d="M33 16.038c0 9.04-8.575 14.291-14.291 15.59-5.717 1.3-17.67-5.976-18.709-14.81C1.04 8.242 0 3 16.11.188 25.016-1.367 33 6.998 33 16.038z" fill="#F7D794"/><path d="M15.772 14.924c.37 1.133-.062 2.556-.892 2.827-.676.485-1.83-.582-2.2-1.715-.37-1.132.132-1.864.859-2.386.518-.372.968-.064 2.233 1.274zM21.978 14.864c-.352 1.195-1.151 2.331-2.005 2.143-.831.09-1.32-1.227-1.049-2.458.27-1.23.733-1.753 1.628-1.849.637-.068 1.54.608 1.426 2.164zM24.083 18.641c.2.718-.14 3.961-3.246 4.83-3.105.867-6.259-1.211-6.46-1.929-.2-.717 2.81.848 5.916-.02 3.105-.868 3.59-3.598 3.79-2.88z" fill="#000"/></svg>